name analog
datacolumns 19
datarows 22
range 0.17 0.1805
endheader
time	ground_force_vx	ground_force_vy	ground_force_vz	ground_force_px	ground_force_py	ground_force_pz	l_ground_force_vx	l_ground_force_vy	l_ground_force_vz	l_ground_force_px	l_ground_force_py	l_ground_force_pz	ground_torque_x	ground_torque_y	ground_torque_z	l_ground_torque_x	l_ground_torque_y	l_ground_torque_z
0.17	-0.0	-0.0	-0.0	-0.0	-0.0	-0.0	-4.622329235076904	-4.244104862213135	-754.4981689453125	-0.0	-0.0	-0.0	-0.0	-0.0	-0.0	265406.15625	3319.25146484375	-3193.984375
0.1705	-0.0	-0.0	-0.0	-0.0	-0.0	-0.0	-3.996598482131958	-3.7003252506256095	-748.2500610351562	-0.0	-0.0	-0.0	-0.0	-0.0	-0.0	263662.46875	3692.082763671875	-2942.064697265625
0.171	-0.0	-0.0	-0.0	-0.0	-0.0	-0.0	-4.262680530548096	-3.652990341186523	-745.7698974609375	-0.0	-0.0	-0.0	-0.0	-0.0	-0.0	261945.28125	3900.451904296875	-2814.4140625
0.1715	-0.0	-0.0	-0.0	-0.0	-0.0	-0.0	-4.164904594421387	-3.705028295516968	-739.9231567382812	-0.0	-0.0	-0.0	-0.0	-0.0	-0.0	260425.84375	3695.423095703125	-2758.142333984375
0.17200000000000001	-0.0	-0.0	-0.0	-0.0	-0.0	-0.0	-3.202447891235352	-3.943602800369263	-738.7350463867188	-0.0	-0.0	-0.0	-0.0	-0.0	-0.0	259203.890625	3963.36328125	-2532.12939453125
0.17250000000000001	-0.0	-0.0	-0.0	-0.0	-0.0	-0.0	-3.446577548980713	-3.435822010040283	-736.6237182617188	-0.0	-0.0	-0.0	-0.0	-0.0	-0.0	258560.546875	4312.75732421875	-2551.501220703125
0.17300000000000001	-0.0	-0.0	-0.0	-0.0	-0.0	-0.0	-3.113517999649048	-3.4015326499938965	-735.5094604492188	-0.0	-0.0	-0.0	-0.0	-0.0	-0.0	257653.203125	4488.25048828125	-2634.509765625
0.17350000000000002	-0.0	-0.0	-0.0	-0.0	-0.0	-0.0	-3.6286466121673584	-1.9346187114715576	-733.5006103515625	-0.0	-0.0	-0.0	-0.0	-0.0	-0.0	257284.359375	4645.00927734375	-2758.987060546875
0.17400000000000002	-0.0	-0.0	-0.0	-0.0	-0.0	-0.0	-3.7132554054260254	-0.6814888119697571	-729.7764892578125	-0.0	-0.0	-0.0	-0.0	-0.0	-0.0	256511.40625	4924.6748046875	-2795.446044921875
0.17450000000000002	-0.0	-0.0	-0.0	-0.0	-0.0	-0.0	-3.193588256835937	0.4498279392719269	-729.377685546875	-0.0	-0.0	-0.0	-0.0	-0.0	-0.0	255845.125	5360.5146484375	-2729.868408203125
0.17500000000000002	-0.0	-0.0	-0.0	-0.0	-0.0	-0.0	-3.165041446685791	0.8953975439071655	-728.0292358398438	-0.0	-0.0	-0.0	-0.0	-0.0	-0.0	255231.484375	5435.96826171875	-2500.621337890625
0.17550000000000002	-0.0	-0.0	-0.0	-0.0	-0.0	-0.0	-2.572612762451172	0.8832168579101562	-728.679443359375	-0.0	-0.0	-0.0	-0.0	-0.0	-0.0	254956.5625	5677.6328125	-2547.339111328125
0.176	-0.0	-0.0	-0.0	-0.0	-0.0	-0.0	-2.2177696228027344	0.810605525970459	-726.3440551757812	-0.0	-0.0	-0.0	-0.0	-0.0	-0.0	254494.015625	5257.2939453125	-2425.907958984375
0.1765	-0.0	-0.0	-0.0	-0.0	-0.0	-0.0	-2.040348052978516	0.5415678024291992	-728.2229614257812	-0.0	-0.0	-0.0	-0.0	-0.0	-0.0	254183.1875	5995.4931640625	-2202.967041015625
0.177	-0.0	-0.0	-0.0	-0.0	-0.0	-0.0	-1.8629264831542969	1.1558194160461426	-726.2353515625	-0.0	-0.0	-0.0	-0.0	-0.0	-0.0	253496.3125	5964.39208984375	-2316.10888671875
0.1775	-0.0	-0.0	-0.0	-0.0	-0.0	-0.0	-1.8516371250152588	0.9752851724624634	-725.1434326171875	-0.0	-0.0	-0.0	-0.0	-0.0	-0.0	252914.1875	6240.6513671875	-2140.655029296875
0.178	-0.0	-0.0	-0.0	-0.0	-0.0	-0.0	-2.2066266536712646	0.6330440044403076	-722.8462524414062	-0.0	-0.0	-0.0	-0.0	-0.0	-0.0	252408.828125	6235.14892578125	-2002.561767578125
0.1785	-0.0	-0.0	-0.0	-0.0	-0.0	-0.0	-2.299194574356079	0.3714212477207184	-722.4376831054688	-0.0	-0.0	-0.0	-0.0	-0.0	-0.0	252263.71875	6292.7353515625	-2430.337646484375
0.179	-0.0	-0.0	-0.0	-0.0	-0.0	-0.0	-2.5869855880737305	0.2649650573730469	-723.078857421875	-0.0	-0.0	-0.0	-0.0	-0.0	-0.0	251502.1875	6453.69482421875	-2467.49267578125
0.1795	-0.0	-0.0	-0.0	-0.0	-0.0	-0.0	-2.7606313228607178	0.6252854466438293	-722.0038452148438	-0.0	-0.0	-0.0	-0.0	-0.0	-0.0	251341.46875	6492.4873046875	-2726.17138671875
0.18	-0.0	-0.0	-0.0	-0.0	-0.0	-0.0	-3.3883092403411865	0.6962394118309021	-721.3609008789062	-0.0	-0.0	-0.0	-0.0	-0.0	-0.0	250801.265625	6694.74755859375	-2938.972900390625
0.1805	-0.0	-0.0	-0.0	-0.0	-0.0	-0.0	-3.74631929397583	1.0598602294921875	-720.259521484375	-0.0	-0.0	-0.0	-0.0	-0.0	-0.0	249874.0625	6558.19873046875	-2948.260009765625
